<svg width="168" height="145" viewBox="0 0 168 145" fill="none" xmlns="http://www.w3.org/2000/svg">
<path d="M157.905 0H10.0958C4.52786 0 0 4.29589 0 9.57627V135.185C0 140.465 4.52786 144.761 10.0958 144.761H157.906C163.472 144.761 168 140.465 168 135.185V9.57627C168.001 4.2963 163.472 0 157.905 0ZM127.466 16.0805C127.466 14.1277 129.134 12.5444 131.193 12.5444H134.921C136.98 12.5444 138.648 14.1273 138.648 16.0805V20.0879C138.648 22.0406 136.979 23.6236 134.921 23.6236H131.193C129.134 23.6236 127.466 22.0406 127.466 20.0879V16.0805ZM110.131 16.0805C110.131 14.1277 111.801 12.5444 113.859 12.5444H117.586C119.644 12.5444 121.314 14.1273 121.314 16.0805V20.0879C121.314 22.0406 119.644 23.6236 117.586 23.6236H113.859C111.801 23.6236 110.131 22.0406 110.131 20.0879V16.0805ZM155.885 133.269H12.1151V34.2453H155.885V133.269ZM155.983 20.0879C155.983 22.0406 154.314 23.6236 152.256 23.6236H148.528C146.468 23.6236 144.8 22.0406 144.8 20.0879V16.0805C144.8 14.1277 146.469 12.5444 148.528 12.5444H152.256C154.314 12.5444 155.983 14.1273 155.983 16.0805V20.0879Z" fill="#43C6AC"/>
<path d="M36.0623 87.4916L63.0855 99.4111C63.7842 99.7178 64.5278 99.8735 65.2968 99.8735C66.2983 99.8735 67.2746 99.6037 68.1232 99.0917C69.6426 98.1706 70.5503 96.6011 70.5503 94.8929V94.7621C70.5503 92.8313 69.3573 91.0582 67.5106 90.2448L50.6093 82.7963L67.5106 75.3471C69.3573 74.5328 70.5503 72.7601 70.5503 70.8302V70.7005C70.5503 68.99 69.6426 67.4196 68.1232 66.5018C67.2831 65.9926 66.3043 65.7233 65.2938 65.7233C64.5317 65.7233 63.7675 65.8821 63.0834 66.1836L36.0619 78.1018C34.2169 78.9161 33.0247 80.6896 33.0247 82.6188V82.9751C33.0243 84.9014 34.2156 86.6741 36.0623 87.4916Z" fill="#43C6AC"/>
<path d="M70.791 111.769C71.7767 113.049 73.3621 113.813 75.0319 113.813H75.1672C77.4599 113.813 79.4685 112.421 80.1672 110.352L97.968 58.0358C98.4787 56.526 98.1955 54.8593 97.2094 53.5774C96.2237 52.2975 94.6383 51.5337 92.9681 51.5337H92.8332C90.5397 51.5337 88.5289 52.9253 87.8303 54.9938L70.0277 107.314C69.5209 108.826 69.8062 110.491 70.791 111.769Z" fill="#43C6AC"/>
<path d="M97.4498 70.8297C97.4498 72.7577 98.6419 74.5308 100.489 75.3491L117.39 82.7963L100.489 90.244C98.6428 91.0582 97.4498 92.8313 97.4498 94.7613V94.8921C97.4498 96.6006 98.3566 98.1702 99.8778 99.0917C100.723 99.6029 101.7 99.8735 102.703 99.8735C103.471 99.8735 104.214 99.7178 104.918 99.4095L131.939 87.4904C133.784 86.6741 134.976 84.9014 134.976 82.9743V82.618C134.976 80.6888 133.784 78.9153 131.937 78.101L104.916 66.1828C104.234 65.8821 103.471 65.7233 102.709 65.7233C101.7 65.7233 100.72 65.9918 99.8799 66.5001C98.3588 67.4196 97.451 68.9896 97.451 70.7001V70.8293H97.4498V70.8297Z" fill="#43C6AC"/>
</svg>
