<svg width="186" height="166" viewBox="0 0 186 166" fill="none" xmlns="http://www.w3.org/2000/svg">
<path d="M88.8613 37.4148C79.3604 37.4148 71.6301 45.5301 71.6301 55.5047C71.6301 65.4793 79.36 73.595 88.8613 73.595C98.3626 73.595 106.092 65.4797 106.092 55.5047C106.092 45.5293 98.3623 37.4148 88.8613 37.4148ZM88.8613 66.9283C82.8617 66.9283 77.9799 61.8035 77.9799 55.5043C77.9799 49.2052 82.8613 44.0808 88.8613 44.0808C94.861 44.0808 99.7424 49.2056 99.7424 55.5043C99.742 61.8035 94.8606 66.9283 88.8613 66.9283Z" fill="#43C6AC"/>
<path d="M164.23 31.9033C158.003 31.9033 152.937 37.2223 152.937 43.7597C152.937 50.2972 158.003 55.6161 164.23 55.6161C170.457 55.6161 175.524 50.2972 175.524 43.7597C175.523 37.2223 170.457 31.9033 164.23 31.9033ZM164.23 48.9498C161.505 48.9498 159.287 46.6213 159.287 43.7597C159.287 40.8981 161.504 38.5697 164.23 38.5697C166.956 38.5697 169.174 40.8981 169.174 43.7597C169.173 46.6217 166.956 48.9498 164.23 48.9498Z" fill="#43C6AC"/>
<path d="M173.211 0.00190593L127.042 0C119.99 0 114.253 6.02489 114.253 13.4304V28.7327H95.2155C95.2111 28.7327 95.2075 28.7324 95.2031 28.7324H25.881C25.873 28.7324 25.8651 28.7327 25.8563 28.7327H13.5686C6.08681 28.7327 0 35.1234 0 42.9778V128.568C0 136.423 6.08681 142.813 13.5686 142.813H62.1821L57.8957 161.093C57.8921 161.108 57.8907 161.124 57.8874 161.14C57.8699 161.22 57.8561 161.301 57.8442 161.384C57.8383 161.423 57.8314 161.463 57.8267 161.503C57.818 161.582 57.814 161.662 57.8107 161.744C57.8089 161.785 57.8053 161.826 57.8049 161.867C57.8049 161.875 57.8038 161.883 57.8038 161.891C57.8038 161.99 57.8096 162.089 57.8176 162.186C57.8187 162.198 57.818 162.211 57.8195 162.224C57.8307 162.346 57.8496 162.466 57.8732 162.584C57.8761 162.6 57.8808 162.614 57.8841 162.63C57.9063 162.732 57.9321 162.832 57.9626 162.93C57.9713 162.958 57.9822 162.986 57.9917 163.013C58.0204 163.097 58.0512 163.18 58.0861 163.261C58.1006 163.294 58.1163 163.327 58.1319 163.36C58.1668 163.434 58.2034 163.506 58.2427 163.577C58.2623 163.611 58.2816 163.646 58.3023 163.68C58.3437 163.748 58.3884 163.814 58.4345 163.879C58.4501 163.901 58.4632 163.925 58.4799 163.947C58.4872 163.956 58.4955 163.965 58.5028 163.974C58.5587 164.047 58.618 164.117 58.6793 164.185C58.6957 164.203 58.7106 164.222 58.7277 164.24C58.8065 164.323 58.889 164.402 58.9758 164.475C58.9987 164.495 59.0226 164.512 59.0459 164.531C59.112 164.584 59.1792 164.636 59.249 164.684C59.2791 164.704 59.3104 164.723 59.3412 164.743C59.4077 164.785 59.4753 164.825 59.5454 164.862C59.5777 164.879 59.6101 164.895 59.6428 164.911C59.7143 164.946 59.7866 164.978 59.8611 165.007C59.8938 165.02 59.9261 165.033 59.9588 165.045C60.0358 165.073 60.1143 165.096 60.1935 165.117C60.2258 165.126 60.2571 165.136 60.2891 165.143C60.373 165.163 60.458 165.177 60.5444 165.189C60.5731 165.193 60.6015 165.2 60.6309 165.203C60.7453 165.216 60.8612 165.224 60.9786 165.224H99.2537H124.382C126.136 165.224 127.558 163.732 127.558 161.891C127.558 160.05 126.136 158.558 124.382 158.558H103.304L106.996 142.814L162.523 142.812C169.217 142.812 174.664 137.097 174.664 130.071V101.237C181.034 100.477 186 94.7869 186 87.8993V13.4293C186.001 6.02489 180.263 0.00190593 173.211 0.00190593ZM130.761 13.4293C130.761 9.70154 133.65 6.66869 137.201 6.66869H173.211C176.762 6.6683 179.651 9.70115 179.651 13.4293V17.3588H130.761V13.4293ZM130.761 24.0244H179.651V76.8831H178.133L162.156 58.4251C161.554 57.7302 160.701 57.3335 159.806 57.3335C158.912 57.3335 158.058 57.7298 157.456 58.4251L152.921 63.6647L141.657 50.6565C141.055 49.9619 140.202 49.5653 139.307 49.5653C138.413 49.5653 137.56 49.9616 136.958 50.6568L130.761 57.8148L130.761 24.0244ZM169.553 76.8831H164.366L157.212 68.6205L159.806 65.6231L169.553 76.8831ZM130.761 67.4599L130.887 67.5801L139.308 57.8541L155.786 76.8831H130.761V67.4599ZM120.603 13.4308C120.603 10.0322 123.004 7.21866 126.116 6.74496C125.034 8.71525 124.411 10.9964 124.411 13.4297V87.8985C124.411 90.3299 125.033 92.6106 126.114 94.5798C123.003 94.1049 120.602 91.294 120.602 87.8985V13.4308H120.603ZM20.0899 103.754L45.6309 76.1943L79.5859 115.403H20.0899V103.754ZM73.5732 98.5455L81.2018 89.7326L103.421 115.402H88.1667V115.403L73.5732 98.5455ZM15.2125 136.146H13.5686C9.58814 136.147 6.34983 132.747 6.34983 128.568V42.9778C6.34983 38.7989 9.58814 35.3991 13.5686 35.3991H15.2125C14.2741 37.207 13.7401 39.2787 13.7401 41.4778V130.069C13.7401 132.268 14.2738 134.339 15.2125 136.146ZM96.7656 158.556H65.0299L68.7212 142.813H100.457L96.7656 158.556ZM168.315 130.07C168.315 133.42 165.718 136.145 162.524 136.145H25.881C22.6878 136.145 20.0899 133.42 20.0899 130.07V122.07H168.315V130.07ZM168.315 115.403H112.001L83.5519 82.5353C82.9499 81.8404 82.097 81.4438 81.2022 81.4438C80.3078 81.4438 79.4544 81.84 78.8528 82.5353L69.2825 93.5908L48.0584 69.0881C47.4691 68.4081 46.6387 68.0133 45.7632 67.9981C44.8789 67.995 44.0445 68.3474 43.4342 69.0065L20.0903 94.1949V41.4782C20.0903 38.1303 22.6816 35.4064 25.869 35.3995H114.253V87.8985C114.253 95.3014 119.99 101.324 127.042 101.324L168.316 101.325V115.403H168.315ZM179.651 87.8981C179.651 91.6263 176.762 94.6591 173.211 94.6591L137.176 94.658C133.636 94.6438 130.761 91.6175 130.761 87.8981V83.5495H179.651V87.8981H179.651Z" fill="#43C6AC"/>
</svg>
