<svg width="160" height="165" viewBox="0 0 160 165" fill="none" xmlns="http://www.w3.org/2000/svg">
<path d="M157.497 139.42L146.82 128.485V23.9202C146.82 22.5533 146.152 21.1864 144.818 20.503L98.1022 0C97.4348 0 96.1001 0 95.4327 0L50.0521 20.503L4.67153 0C3.33681 0 2.66945 0 1.33472 0.683433C0.667362 1.36687 0 2.0503 0 3.41717V140.104C0 141.471 0.667362 142.838 2.00209 143.521L48.7174 164.024C49.3848 164.024 49.3848 164.024 50.0521 164.024C50.7195 164.024 50.7195 164.024 51.3869 164.024L96.7675 144.204L142.148 164.024C143.483 164.707 144.15 164.024 145.485 164.024C146.152 163.341 146.82 162.657 146.82 161.29V157.19C147.487 157.19 148.822 157.873 149.489 157.873C152.158 157.873 154.828 157.19 156.83 155.139L157.497 154.456C160.834 149.672 160.834 142.838 157.497 139.42ZM46.7153 155.139L6.67362 137.37V116.184H46.7153V155.139ZM46.7153 109.349H6.67362V56.725L46.7153 80.6451V109.349ZM46.7153 72.4439L6.67362 48.5238V8.88463L46.7153 26.6539V72.4439ZM100.104 8.88463L112.784 14.3521L108.113 27.3373C108.113 28.0208 107.445 28.7042 106.778 29.3876L100.104 32.1214V8.88463ZM100.104 39.6391L109.447 34.8551C111.449 34.1717 113.452 32.1214 114.119 29.3876L118.79 16.4024L140.146 25.9705V99.7813L132.805 95.6807C132.805 94.3138 133.472 92.9469 133.472 92.2635C133.472 72.4439 118.79 56.725 100.104 54.6747V39.6391ZM131.47 123.018L124.797 116.184C128.133 112.083 130.136 107.982 131.47 103.198L140.146 107.982V123.018C137.477 121.651 134.14 121.651 131.47 123.018ZM73.4098 17.0858L93.4307 8.2012V34.8551L78.0813 42.3729C76.7466 43.0563 75.4119 42.3729 74.7445 42.3729C74.0772 42.3729 73.4098 41.006 73.4098 39.6391V17.0858ZM53.3889 25.9705L66.7362 20.503V40.3226C66.7362 43.7397 68.7383 47.1569 71.4077 49.2072C72.7424 49.8906 74.7445 50.5741 76.7466 50.5741C78.0813 50.5741 80.0834 49.8906 81.4181 49.2072L93.4307 43.0563V54.6747C80.7508 56.0415 69.4056 63.5593 64.0667 75.1777H53.3889V25.9705ZM53.3889 82.012H61.3973C60.7299 85.4292 60.0626 88.8463 60.0626 92.2635C60.0626 98.4144 61.3973 103.882 64.0667 109.349H53.3889V82.012ZM93.4307 138.054L53.3889 155.823V116.184H68.7383C74.7445 123.701 83.4202 128.485 93.4307 129.852V138.054ZM66.7362 92.2635C66.7362 75.1777 80.0834 61.509 96.7675 61.509C113.452 61.509 126.799 75.1777 126.799 92.2635C126.799 109.349 113.452 123.018 96.7675 123.018C80.0834 123.018 66.7362 109.349 66.7362 92.2635ZM140.146 155.139L100.104 137.37V129.852C107.445 129.169 114.786 125.752 120.125 120.968L126.799 127.802C124.797 131.903 125.464 136.687 128.133 139.42L139.479 151.039V155.139H140.146ZM152.826 148.988C150.824 151.039 148.822 151.039 147.487 149.672L133.472 135.32C132.138 133.953 132.138 131.903 133.472 130.536L134.14 129.852C134.807 129.169 135.474 129.169 136.809 129.169C138.144 129.169 138.811 129.169 139.479 129.852L153.493 144.204C153.493 145.571 153.493 147.622 152.826 148.988Z" fill="#43C6AC"/>
</svg>
